<?xml version="1.0" encoding="UTF-8" standalone="no"?>
<!DOCTYPE svg PUBLIC "-//W3C//DTD SVG 20010904//EN"
              "http://www.w3.org/TR/2001/REC-SVG-20010904/DTD/svg10.dtd">

<svg xmlns="http://www.w3.org/2000/svg"
     width="10.6944in" height="6.01389in"
     viewBox="0 0 770 433">
  <path id="Unnamed"
        fill="none" stroke="black" stroke-width="1"
        d="M 381.00,126.00
           C 381.00,126.00 367.00,126.00 367.00,126.00
             367.00,126.00 364.00,126.34 364.00,128.00
             364.00,130.69 367.00,130.78 367.00,140.00
             367.00,149.22 357.00,180.62 357.00,191.00
             357.00,201.38 360.12,216.00 381.00,216.00
             401.88,216.00 406.00,202.18 406.00,191.00
             406.00,179.82 396.00,150.00 396.00,140.00
             396.00,130.00 399.00,130.57 399.00,128.00
             399.00,125.43 396.00,126.00 396.00,126.00
             396.00,126.00 381.00,126.00 381.00,126.00M 381.00,211.00
           C 374.00,211.00 362.00,211.75 362.00,191.00
             362.00,167.31 371.00,157.94 371.00,140.00
             371.00,136.00 369.00,130.00 369.00,130.00
             369.00,130.00 381.00,130.00 381.00,130.00
             381.00,130.00 393.00,130.00 393.00,130.00
             393.00,130.00 392.00,134.22 392.00,140.00
             392.00,145.78 401.00,182.45 401.00,191.00
             401.00,204.36 397.91,211.00 381.00,211.00" />
</svg>
