<?xml version="1.0" encoding="UTF-8" standalone="no"?>
<!DOCTYPE svg PUBLIC "-//W3C//DTD SVG 20010904//EN"
              "http://www.w3.org/TR/2001/REC-SVG-20010904/DTD/svg10.dtd">

<svg xmlns="http://www.w3.org/2000/svg"
     width="10.6944in" height="6.01389in"
     viewBox="0 0 770 433">
  <path id="Unnamed #1"
        fill="none" stroke="black" stroke-width="1"
        d="M 365.00,161.00
           C 365.00,161.00 366.25,156.00 366.25,156.00
             366.25,156.00 396.62,156.00 396.62,156.00
             396.62,156.00 397.31,161.00 397.31,161.00
             397.31,161.00 365.12,161.00 365.12,161.00M 362.94,170.00
           C 362.94,170.00 364.19,166.00 364.19,166.00
             364.19,166.00 398.44,166.00 398.44,166.00
             398.44,166.00 400.00,170.00 399.94,170.00
             399.88,170.00 363.19,170.00 363.06,170.00M 367.94,210.00
           C 367.94,210.00 335.00,210.00 335.00,210.00
             335.00,210.00 335.75,215.00 335.75,215.00
             335.75,215.00 380.00,215.00 380.06,215.00
             380.12,215.00 368.00,210.00 367.62,210.00" />
</svg>
